<?xml version="1.0" encoding="utf-8"?>
<svg version="1.1" xmlns:xlink="http://www.w3.org/1999/xlink" width="40px" height="38px" xmlns="http://www.w3.org/2000/svg">
  <g transform="matrix(1 0 0 1 -136 -317 )">
    <path d="M 38.6538461538462 13.6244486452426  C 39.5512820512821 13.768115942029  40 14.1352657004831  40 14.7258979206049  C 40 15.0770846460828  39.7916666666667 15.4601974375131  39.375 15.875236294896  L 30.6490384615385 24.351606805293  L 32.7163461538462 36.3238815374921  C 32.7323717948718 36.435622768326  32.7403846153846 36.5952530980886  32.7403846153846 36.8027725267801  C 32.7403846153846 37.1379962192817  32.65625 37.4213400546104  32.4879807692308 37.6528040327662  C 32.3197115384615 37.8842680109221  32.0753205128205 38  31.7548076923077 38  C 31.4503205128205 38  31.1298076923077 37.9042218021424  30.7932692307692 37.7126654064272  L 20 32.0617517328292  L 9.20673076923077 37.7126654064272  C 8.85416666666667 37.9042218021424  8.53365384615385 38  8.24519230769231 38  C 7.90865384615385 38  7.65625 37.8842680109221  7.48798076923077 37.6528040327662  C 7.31971153846154 37.4213400546104  7.23557692307692 37.1379962192817  7.23557692307692 36.8027725267801  C 7.23557692307692 36.7069943289225  7.25160256410256 36.5473639991598  7.28365384615385 36.3238815374921  L 9.35096153846154 24.351606805293  L 0.600961538461538 15.875236294896  C 0.200320512820513 15.4442344045369  0 15.0611216131065  0 14.7258979206049  C 0 14.1352657004831  0.448717948717949 13.768115942029  1.34615384615385 13.6244486452426  L 13.4134615384615 11.8764965343415  L 18.8221153846154 0.981726528040326  C 19.1266025641026 0.327242176013441  19.5192307692308 0  20 0  C 20.4807692307692 0  20.8733974358974 0.327242176013441  21.1778846153846 0.981726528040326  L 26.5865384615385 11.8764965343415  L 38.6538461538462 13.6244486452426  Z " fill-rule="nonzero" fill="#ffff00" stroke="none" transform="matrix(1 0 0 1 136 317 )" />
  </g>
</svg>