<?xml version="1.0" encoding="utf-8"?>
<svg version="1.1" xmlns:xlink="http://www.w3.org/1999/xlink" width="19px" height="20px" xmlns="http://www.w3.org/2000/svg">
  <g transform="matrix(1 0 0 1 -390 -99 )">
    <path d="M 1.46153846153846 15.3571428571429  L 1.46153846153846 18.5714285714286  L 4.75 18.5714285714286  L 4.75 15.3571428571429  L 1.46153846153846 15.3571428571429  Z M 5.48076923076923 15.3571428571429  L 5.48076923076923 18.5714285714286  L 9.13461538461539 18.5714285714286  L 9.13461538461539 15.3571428571429  L 5.48076923076923 15.3571428571429  Z M 1.46153846153846 11.0714285714286  L 1.46153846153846 14.6428571428571  L 4.75 14.6428571428571  L 4.75 11.0714285714286  L 1.46153846153846 11.0714285714286  Z M 5.48076923076923 11.0714285714286  L 5.48076923076923 14.6428571428571  L 9.13461538461539 14.6428571428571  L 9.13461538461539 11.0714285714286  L 5.48076923076923 11.0714285714286  Z M 1.46153846153846 7.14285714285714  L 1.46153846153846 10.3571428571429  L 4.75 10.3571428571429  L 4.75 7.14285714285714  L 1.46153846153846 7.14285714285714  Z M 9.86538461538462 15.3571428571429  L 9.86538461538462 18.5714285714286  L 13.5192307692308 18.5714285714286  L 13.5192307692308 15.3571428571429  L 9.86538461538462 15.3571428571429  Z M 5.48076923076923 7.14285714285714  L 5.48076923076923 10.3571428571429  L 9.13461538461539 10.3571428571429  L 9.13461538461539 7.14285714285714  L 5.48076923076923 7.14285714285714  Z M 14.25 15.3571428571429  L 14.25 18.5714285714286  L 17.5384615384615 18.5714285714286  L 17.5384615384615 15.3571428571429  L 14.25 15.3571428571429  Z M 9.86538461538462 11.0714285714286  L 9.86538461538462 14.6428571428571  L 13.5192307692308 14.6428571428571  L 13.5192307692308 11.0714285714286  L 9.86538461538462 11.0714285714286  Z M 5.73768028846154 5.25111607142857  C 5.80999599358974 5.18043154761905  5.84615384615385 5.09672619047619  5.84615384615385 5  L 5.84615384615385 1.78571428571429  C 5.84615384615385 1.6889880952381  5.80999599358974 1.60528273809524  5.73768028846154 1.53459821428571  C 5.66536458333333 1.46391369047619  5.57972756410256 1.42857142857143  5.48076923076923 1.42857142857143  L 4.75 1.42857142857143  C 4.65104166666667 1.42857142857143  4.5654046474359 1.46391369047619  4.49308894230769 1.53459821428571  C 4.42077323717949 1.60528273809524  4.38461538461539 1.6889880952381  4.38461538461539 1.78571428571429  L 4.38461538461539 5  C 4.38461538461539 5.09672619047619  4.42077323717949 5.18043154761905  4.49308894230769 5.25111607142857  C 4.5654046474359 5.32180059523809  4.65104166666667 5.35714285714286  4.75 5.35714285714286  L 5.48076923076923 5.35714285714286  C 5.57972756410256 5.35714285714286  5.66536458333333 5.32180059523809  5.73768028846154 5.25111607142857  Z M 14.25 11.0714285714286  L 14.25 14.6428571428571  L 17.5384615384615 14.6428571428571  L 17.5384615384615 11.0714285714286  L 14.25 11.0714285714286  Z M 9.86538461538462 7.14285714285714  L 9.86538461538462 10.3571428571429  L 13.5192307692308 10.3571428571429  L 13.5192307692308 7.14285714285714  L 9.86538461538462 7.14285714285714  Z M 14.25 7.14285714285714  L 14.25 10.3571428571429  L 17.5384615384615 10.3571428571429  L 17.5384615384615 7.14285714285714  L 14.25 7.14285714285714  Z M 14.5069110576923 5.25111607142857  C 14.5792267628205 5.18043154761905  14.6153846153846 5.09672619047619  14.6153846153846 5  L 14.6153846153846 1.78571428571429  C 14.6153846153846 1.6889880952381  14.5792267628205 1.60528273809524  14.5069110576923 1.53459821428571  C 14.4345953525641 1.46391369047619  14.3489583333333 1.42857142857143  14.25 1.42857142857143  L 13.5192307692308 1.42857142857143  C 13.4202724358974 1.42857142857143  13.3346354166667 1.46391369047619  13.2623197115385 1.53459821428571  C 13.1900040064103 1.60528273809524  13.1538461538462 1.6889880952381  13.1538461538462 1.78571428571429  L 13.1538461538462 5  C 13.1538461538462 5.09672619047619  13.1900040064103 5.18043154761905  13.2623197115385 5.25111607142857  C 13.3346354166667 5.32180059523809  13.4202724358974 5.35714285714286  13.5192307692308 5.35714285714286  L 14.25 5.35714285714286  C 14.3489583333333 5.35714285714286  14.4345953525641 5.32180059523809  14.5069110576923 5.25111607142857  Z M 18.5661057692308 3.28125  C 18.8553685897436 3.5639880952381  19 3.89880952380952  19 4.28571428571429  L 19 18.5714285714286  C 19 18.9583333333333  18.8553685897436 19.2931547619048  18.5661057692308 19.5758928571429  C 18.2768429487179 19.858630952381  17.9342948717949 20  17.5384615384615 20  L 1.46153846153846 20  C 1.06570512820513 20  0.723157051282051 19.858630952381  0.433894230769231 19.5758928571429  C 0.14463141025641 19.2931547619048  0 18.9583333333333  0 18.5714285714286  L 0 4.28571428571429  C 0 3.89880952380952  0.14463141025641 3.5639880952381  0.433894230769231 3.28125  C 0.723157051282051 2.9985119047619  1.06570512820513 2.85714285714286  1.46153846153846 2.85714285714286  L 2.92307692307692 2.85714285714286  L 2.92307692307692 1.78571428571429  C 2.92307692307692 1.29464285714286  3.10196314102564 0.874255952380951  3.45973557692308 0.524553571428572  C 3.81750801282051 0.174851190476191  4.24759615384615 0  4.75 0  L 5.48076923076923 0  C 5.98317307692308 0  6.41326121794872 0.174851190476191  6.77103365384615 0.524553571428572  C 7.12880608974359 0.874255952380951  7.30769230769231 1.29464285714286  7.30769230769231 1.78571428571429  L 7.30769230769231 2.85714285714286  L 11.6923076923077 2.85714285714286  L 11.6923076923077 1.78571428571429  C 11.6923076923077 1.29464285714286  11.8711939102564 0.874255952380951  12.2289663461538 0.524553571428572  C 12.5867387820513 0.174851190476191  13.0168269230769 0  13.5192307692308 0  L 14.25 0  C 14.7524038461538 0  15.1824919871795 0.174851190476191  15.5402644230769 0.524553571428572  C 15.8980368589744 0.874255952380951  16.0769230769231 1.29464285714286  16.0769230769231 1.78571428571429  L 16.0769230769231 2.85714285714286  L 17.5384615384615 2.85714285714286  C 17.9342948717949 2.85714285714286  18.2768429487179 2.9985119047619  18.5661057692308 3.28125  Z " fill-rule="nonzero" fill="#d4d4d4" stroke="none" transform="matrix(1 0 0 1 390 99 )" />
  </g>
</svg>