<?xml version="1.0" encoding="utf-8"?>
<svg version="1.1" xmlns:xlink="http://www.w3.org/1999/xlink" width="17px" height="18px" xmlns="http://www.w3.org/2000/svg">
  <g transform="matrix(1 0 0 1 -349 -295 )">
    <path d="M 1.30769230769231 13.8214285714286  L 1.30769230769231 16.7142857142857  L 4.25 16.7142857142857  L 4.25 13.8214285714286  L 1.30769230769231 13.8214285714286  Z M 4.90384615384615 13.8214285714286  L 4.90384615384615 16.7142857142857  L 8.17307692307692 16.7142857142857  L 8.17307692307692 13.8214285714286  L 4.90384615384615 13.8214285714286  Z M 1.30769230769231 9.96428571428572  L 1.30769230769231 13.1785714285714  L 4.25 13.1785714285714  L 4.25 9.96428571428572  L 1.30769230769231 9.96428571428572  Z M 4.90384615384615 9.96428571428572  L 4.90384615384615 13.1785714285714  L 8.17307692307692 13.1785714285714  L 8.17307692307692 9.96428571428572  L 4.90384615384615 9.96428571428572  Z M 1.30769230769231 6.42857142857143  L 1.30769230769231 9.32142857142857  L 4.25 9.32142857142857  L 4.25 6.42857142857143  L 1.30769230769231 6.42857142857143  Z M 8.82692307692308 13.8214285714286  L 8.82692307692308 16.7142857142857  L 12.0961538461538 16.7142857142857  L 12.0961538461538 13.8214285714286  L 8.82692307692308 13.8214285714286  Z M 4.90384615384615 6.42857142857143  L 4.90384615384615 9.32142857142857  L 8.17307692307692 9.32142857142857  L 8.17307692307692 6.42857142857143  L 4.90384615384615 6.42857142857143  Z M 12.75 13.8214285714286  L 12.75 16.7142857142857  L 15.6923076923077 16.7142857142857  L 15.6923076923077 13.8214285714286  L 12.75 13.8214285714286  Z M 8.82692307692308 9.96428571428572  L 8.82692307692308 13.1785714285714  L 12.0961538461538 13.1785714285714  L 12.0961538461538 9.96428571428572  L 8.82692307692308 9.96428571428572  Z M 5.13371394230769 4.72600446428572  C 5.19841746794872 4.66238839285714  5.23076923076923 4.58705357142857  5.23076923076923 4.5  L 5.23076923076923 1.60714285714286  C 5.23076923076923 1.52008928571429  5.19841746794872 1.44475446428571  5.13371394230769 1.38113839285714  C 5.06901041666667 1.31752232142857  4.99238782051282 1.28571428571429  4.90384615384615 1.28571428571429  L 4.25 1.28571428571429  C 4.16145833333333 1.28571428571429  4.08483573717949 1.31752232142857  4.02013221153846 1.38113839285714  C 3.95542868589744 1.44475446428571  3.92307692307692 1.52008928571429  3.92307692307692 1.60714285714286  L 3.92307692307692 4.5  C 3.92307692307692 4.58705357142857  3.95542868589744 4.66238839285714  4.02013221153846 4.72600446428572  C 4.08483573717949 4.78962053571429  4.16145833333333 4.82142857142857  4.25 4.82142857142857  L 4.90384615384615 4.82142857142857  C 4.99238782051282 4.82142857142857  5.06901041666667 4.78962053571429  5.13371394230769 4.72600446428572  Z M 12.75 9.96428571428572  L 12.75 13.1785714285714  L 15.6923076923077 13.1785714285714  L 15.6923076923077 9.96428571428572  L 12.75 9.96428571428572  Z M 8.82692307692308 6.42857142857143  L 8.82692307692308 9.32142857142857  L 12.0961538461538 9.32142857142857  L 12.0961538461538 6.42857142857143  L 8.82692307692308 6.42857142857143  Z M 12.75 6.42857142857143  L 12.75 9.32142857142857  L 15.6923076923077 9.32142857142857  L 15.6923076923077 6.42857142857143  L 12.75 6.42857142857143  Z M 12.9798677884615 4.72600446428572  C 13.0445713141026 4.66238839285714  13.0769230769231 4.58705357142857  13.0769230769231 4.5  L 13.0769230769231 1.60714285714286  C 13.0769230769231 1.52008928571429  13.0445713141026 1.44475446428571  12.9798677884615 1.38113839285714  C 12.9151642628205 1.31752232142857  12.8385416666667 1.28571428571429  12.75 1.28571428571429  L 12.0961538461538 1.28571428571429  C 12.0076121794872 1.28571428571429  11.9309895833333 1.31752232142857  11.8662860576923 1.38113839285714  C 11.8015825320513 1.44475446428571  11.7692307692308 1.52008928571429  11.7692307692308 1.60714285714286  L 11.7692307692308 4.5  C 11.7692307692308 4.58705357142857  11.8015825320513 4.66238839285714  11.8662860576923 4.72600446428572  C 11.9309895833333 4.78962053571429  12.0076121794872 4.82142857142857  12.0961538461538 4.82142857142857  L 12.75 4.82142857142857  C 12.8385416666667 4.82142857142857  12.9151642628205 4.78962053571429  12.9798677884615 4.72600446428572  Z M 16.6117788461538 2.953125  C 16.8705929487179 3.20758928571429  17 3.50892857142857  17 3.85714285714286  L 17 16.7142857142857  C 17 17.0625  16.8705929487179 17.3638392857143  16.6117788461538 17.6183035714286  C 16.3529647435897 17.8727678571429  16.0464743589744 18  15.6923076923077 18  L 1.30769230769231 18  C 0.953525641025641 18  0.647035256410256 17.8727678571429  0.388221153846154 17.6183035714286  C 0.129407051282051 17.3638392857143  0 17.0625  0 16.7142857142857  L 0 3.85714285714286  C 0 3.50892857142857  0.129407051282051 3.20758928571429  0.388221153846154 2.953125  C 0.647035256410256 2.69866071428571  0.953525641025641 2.57142857142857  1.30769230769231 2.57142857142857  L 2.61538461538462 2.57142857142857  L 2.61538461538462 1.60714285714286  C 2.61538461538462 1.16517857142857  2.77544070512821 0.786830357142856  3.09555288461538 0.472098214285715  C 3.41566506410256 0.157366071428572  3.80048076923077 0  4.25 0  L 4.90384615384615 0  C 5.35336538461538 0  5.73818108974359 0.157366071428572  6.05829326923077 0.472098214285715  C 6.37840544871795 0.786830357142856  6.53846153846154 1.16517857142857  6.53846153846154 1.60714285714286  L 6.53846153846154 2.57142857142857  L 10.4615384615385 2.57142857142857  L 10.4615384615385 1.60714285714286  C 10.4615384615385 1.16517857142857  10.6215945512821 0.786830357142856  10.9417067307692 0.472098214285715  C 11.2618189102564 0.157366071428572  11.6466346153846 0  12.0961538461538 0  L 12.75 0  C 13.1995192307692 0  13.5843349358974 0.157366071428572  13.9044471153846 0.472098214285715  C 14.2245592948718 0.786830357142856  14.3846153846154 1.16517857142857  14.3846153846154 1.60714285714286  L 14.3846153846154 2.57142857142857  L 15.6923076923077 2.57142857142857  C 16.0464743589744 2.57142857142857  16.3529647435897 2.69866071428571  16.6117788461538 2.953125  Z " fill-rule="nonzero" fill="#aaaaaa" stroke="none" transform="matrix(1 0 0 1 349 295 )" />
  </g>
</svg>