<?xml version="1.0" encoding="utf-8"?>
<svg version="1.1" xmlns:xlink="http://www.w3.org/1999/xlink" width="12px" height="12px" viewBox="84 783  12 12" xmlns="http://www.w3.org/2000/svg">
  <path d="M 90 783  C 93.36 783  96 785.64  96 789  C 96 792.36  93.36 795  90 795  C 86.64 795  84 792.36  84 789  C 84 785.64  86.64 783  90 783  Z " fill-rule="nonzero" fill="#ffffff" stroke="none" />
  <path d="M 90 783.5  C 93.08 783.5  95.5 785.92  95.5 789  C 95.5 792.08  93.08 794.5  90 794.5  C 86.92 794.5  84.5 792.08  84.5 789  C 84.5 785.92  86.92 783.5  90 783.5  Z " stroke-width="1" stroke="#797979" fill="none" />
  <path d="M 90 792  C 88.32 792  87 790.68  87 789  C 87 787.32  88.32 786  90 786  C 91.68 786  93 787.32  93 789  C 93 790.68  91.68 792  90 792  " fill-rule="nonzero" fill="#797979" stroke="none" />
</svg>